<svg xmlns="http://www.w3.org/2000/svg" xmlns:xlink="http://www.w3.org/1999/xlink" viewBox="0 0 170.08 166.07"><defs><style>.cls-1{fill:none;}.cls-2{clip-path:url(#clip-path);}.cls-3{fill:#fff;}</style><clipPath id="clip-path" transform="translate(0 -2)"><circle class="cls-1" cx="85.04" cy="85.04" r="85.04"/></clipPath></defs><title>git</title><g id="Layer_2" data-name="Layer 2"><g id="git"><g class="cls-2"><path class="cls-3" d="M170.08,94.17c-.22,1.36-.41,2.73-.67,4.08a127.43,127.43,0,0,1-2.59,12.52,87.35,87.35,0,0,1-5.46,14.17,94.38,94.38,0,0,1-8.7,13.85,87.16,87.16,0,0,1-10.26,11.3,80.25,80.25,0,0,1-25.64,16c-1.55.62-3.14,1.16-4.73,1.67-3.27,1.07-5.93-.87-5.94-4.28,0-6.85-.09-13.71,0-20.55s-.59-13.18-5.78-18.32c3.48-.67,6.82-1.2,10.1-2,9.78-2.27,18-6.88,23.17-15.88a38.67,38.67,0,0,0,5-16.13A70.57,70.57,0,0,0,139.2,83c-.19-8.26-2.47-15.8-8.12-22.1a2.43,2.43,0,0,1-.37-2c2.25-6.93,1.5-13.73-.82-20.45a1.84,1.84,0,0,0-1.41-.91c-4.23-.19-8.12,1.25-11.84,3a97.57,97.57,0,0,0-8.87,5.08,3.34,3.34,0,0,1-2.82.45,62.86,62.86,0,0,0-14.42-2.29c-2.25-.08-4.49-.37-6.73-.3A77.2,77.2,0,0,0,65.6,46a3.54,3.54,0,0,1-3.25-.49A49.32,49.32,0,0,0,46.46,38c-.74-.17-1.47-.38-2.21-.5-3-.47-3.58-.18-4.44,2.69a31.38,31.38,0,0,0-1.64,11.4,45.31,45.31,0,0,0,1.32,7,2.24,2.24,0,0,1-.38,2.35A31.31,31.31,0,0,0,31.62,77.2a77.28,77.28,0,0,0-.11,11.29,39.31,39.31,0,0,0,2.31,12.08,32.17,32.17,0,0,0,7.59,12.57,36.31,36.31,0,0,0,16.78,9.16c3.81,1,7.72,1.61,11.69,2.42a19.9,19.9,0,0,0-2.14,2.42,19.1,19.1,0,0,0-3.13,8.08,1.71,1.71,0,0,1-.9,1.15c-9,3.75-18.25,2.62-23.92-6.64-2.81-4.6-6.53-8.17-12-9.2a11.32,11.32,0,0,0-4.11.5c-.82.17-1.1.8-.43,1.46a20.1,20.1,0,0,0,3.36,3,20.09,20.09,0,0,1,6.91,7.87c1.27,2.31,2.16,4.86,3.63,7a18,18,0,0,0,12.81,7.86,37.66,37.66,0,0,0,14.31-.72c0,.61.08,1.13.08,1.65,0,4.7,0,9.39,0,14.09,0,2.94-1.87,5.65-5.92,4.53-7.58-2.09-14.4-5.81-20.94-10.1A85,85,0,0,1,4.94,115.52,96.44,96.44,0,0,1,.7,97.92C.41,96,.46,94,.32,92A10,10,0,0,0,0,90.52V83.89a3.55,3.55,0,0,0,.32-.83c.46-4,.73-8,1.37-12a76.43,76.43,0,0,1,9.7-26.46A83.61,83.61,0,0,1,31,21.46,75.71,75.71,0,0,1,46.49,11.35a125,125,0,0,1,16-6.17A62.53,62.53,0,0,1,80.39,2.32,4.64,4.64,0,0,0,81.56,2h7.29c1.8.22,3.6.52,5.41.65a71.55,71.55,0,0,1,17.26,3.59,85.26,85.26,0,0,1,22.93,11.57,84,84,0,0,1,16.8,15.68,83.08,83.08,0,0,1,11.91,19.64,81.32,81.32,0,0,1,6.27,23c.15,1.37.43,2.73.65,4.09Z" transform="translate(0 -2)"/></g></g></g></svg>