<svg xmlns="http://www.w3.org/2000/svg" viewBox="0 0 170.08 170.08"><defs><style>.cls-1{fill:#fff;}</style></defs><title>ig</title><g id="Layer_2" data-name="Layer 2"><g id="ig"><circle class="cls-1" cx="84.35" cy="85.73" r="15.21"/><path class="cls-1" d="M108.89,66.72a5.53,5.53,0,1,1,5.53-5.53A5.46,5.46,0,0,1,108.89,66.72ZM84.35,109.24a23.51,23.51,0,1,1,0-47c12.79,0,23.85,10.37,23.85,23.51A23.61,23.61,0,0,1,84.35,109.24Zm19-60.84h-38c-5.54,0-10.38,1.72-13.49,4.84S47,61.19,47,66.72v38c0,5.53,1.73,10.37,5.19,13.83a19.5,19.5,0,0,0,13.48,4.84h37.68c5.53,0,10.37-1.73,13.48-4.84,3.46-3.11,5.19-7.95,5.19-13.48v-38a19.5,19.5,0,0,0-4.84-13.48C113.73,50.12,109.24,48.4,103.36,48.4Z"/><path class="cls-1" d="M130.32,105.09c0,8-2.76,14.86-7.6,19.7s-11.75,7.26-19.36,7.26H65.68c-7.6,0-14.52-2.42-19.36-7.26-5.18-4.84-7.6-11.75-7.6-19.7v-38c0-15.9,10.71-27,27-27h38c8,0,14.52,2.77,19.36,7.61s7.25,11.4,7.25,19.35v38ZM85,0a85,85,0,1,0,85,85C170.42,38,132.05,0,85,0Z"/></g></g></svg>