<svg xmlns="http://www.w3.org/2000/svg" viewBox="0 0 170.08 170.08"><defs><style>.cls-1{fill:#fff;}</style></defs><title>linkedin</title><g id="Layer_2" data-name="Layer 2"><g id="linkedin"><path class="cls-1" d="M85,0a85,85,0,1,0,85,85A85,85,0,0,0,85,0ZM61.65,123.66H45.35V71.22h16.3ZM52.8,64.49c-6,0-9.93-3.9-9.93-9.21s3.9-9.22,9.93-9.22,9.92,3.9,9.92,9.22S59.17,64.49,52.8,64.49Zm74.4,59.17H108.43V96.38c0-7.09-2.84-12-9.22-12-5,0-7.44,3.19-8.86,6.38A16,16,0,0,0,90,95v28.35H71.57s.36-48.19,0-52.44H90V79c1.06-3.55,7.09-8.86,16.3-8.86,11.69,0,20.9,7.44,20.9,23.74Z"/></g></g></svg>