<svg xmlns="http://www.w3.org/2000/svg" viewBox="0 0 170.08 170.08"><defs><style>.cls-1{fill:#fff;}</style></defs><title>mail</title><g id="Layer_2" data-name="Layer 2"><g id="mail"><path class="cls-1" d="M85,92.16a4.62,4.62,0,0,1-2.6-.78L47.62,67.53v38.86c0,2,1.87,3.56,4.16,3.56H118.3a3.89,3.89,0,0,0,4.15-3.56V67.53L87.64,91.38A4.62,4.62,0,0,1,85,92.16Z"/><path class="cls-1" d="M119.65,60.34a4.65,4.65,0,0,0-1.35-.21H51.78a4.54,4.54,0,0,0-1.35.21L85,84Z"/><path class="cls-1" d="M85,0a85,85,0,1,0,85,85A85,85,0,0,0,85,0Zm45.73,106.39c0,5.9-5.59,10.68-12.47,10.68H51.78c-6.89,0-12.47-4.78-12.47-10.68V63.69c0-5.9,5.58-10.68,12.47-10.68H118.3c6.88,0,12.47,4.78,12.47,10.68Z"/></g></g></svg>