<svg xmlns="http://www.w3.org/2000/svg" viewBox="0 0 170.08 170.08"><defs><style>.cls-1{fill:#fff;}</style></defs><title>Sourcerer</title><g id="Layer_2" data-name="Layer 2"><g id="Sourcerer"><path class="cls-1" d="M83.32,122.31a6.6,6.6,0,1,0,6.62,6.61A6.52,6.52,0,0,0,83.32,122.31Z"/><path class="cls-1" d="M57.76,124.51a2.73,2.73,0,0,0-.15-1.3c-.37-.59-1-1.39-1.53-1.39s-1.2.77-1.57,1.35a3.12,3.12,0,0,0-.15,1.58c0,2.1.54,3,1.74,3S57.75,126.81,57.76,124.51Z"/><path class="cls-1" d="M66.41,130c-1.15,0-1.68.93-1.76,2.94a5.2,5.2,0,0,0,.31,1.85c.33.54,1,1.21,1.54,1.18s1.14-.75,1.45-1.32a3.64,3.64,0,0,0,.18-1.73C68.12,131,67.55,130,66.41,130Z"/><path class="cls-1" d="M85,0a85,85,0,1,0,85,85A85,85,0,0,0,85,0ZM52.43,117.93H50V107.24H45.4V118H43v-10.7L40,107v-1.78h2.83c.37-1.61-.43-3.64,1.37-4.47a16.87,16.87,0,0,1,4.19-.78v2.18c-3,.59-3,.59-2.83,3h6.91Zm-2.32-15.58v-2h2.31v2Zm2.69,25.06a16.27,16.27,0,0,1-.07-5.07c.27-1.78,1.61-2.61,3.4-2.59a3.21,3.21,0,0,1,3.3,2.6c.2.75.26,1.54.4,2.42a22,22,0,0,1-.49,2.66A3.22,3.22,0,0,1,56,129.75,3,3,0,0,1,52.8,127.41Zm1.87,10.22,2.06-3.42c2.58-4.23,5.24-8.42,7.71-12.71a2.6,2.6,0,0,1,3.34-1.35c-.26.48-.47.91-.72,1.31-3,4.94-6.11,9.84-9,14.83A2.58,2.58,0,0,1,54.67,137.63Zm15-1.78a3.08,3.08,0,0,1-3.3,2.18c-1.63,0-2.93-.71-3.19-2.27a17.45,17.45,0,0,1,0-5.35c.25-1.59,1.67-2.38,3.3-2.36a3.21,3.21,0,0,1,3.24,2.31,21.59,21.59,0,0,1,.49,2.77A18.93,18.93,0,0,1,69.67,135.85Zm13.78,2a8.9,8.9,0,1,1,8.8-9A8.85,8.85,0,0,1,83.45,137.8Zm29.58,0c-2.56-.07-5.12,0-7.67,0s-4.93,0-7.38,0c-1,0-1.4-.23-1.39-1.31,0-5.07,0-10.14,0-15.21,0-1,.32-1.36,1.35-1.35,5.07,0,10.14.05,15.2,0,1.07,0,1.33.4,1.32,1.39q-.06,7.53,0,15.06C114.48,137.51,114.12,137.86,113,137.84ZM119.44,118a8.87,8.87,0,1,1,8.8-9A8.82,8.82,0,0,1,119.44,118Zm8-19.53c-6.3,0-12.6,0-18.9,0a2.25,2.25,0,0,1-1.32-.46c-3.6-3.07-8-4.15-12.47-4.83-9.18-1.4-18.41-2.51-27.53-4.22-6.54-1.23-12.7-3.6-17.85-8.22-4.79-4.29-6.87-9.72-7.56-15.83C40.2,50.93,48.68,41.73,59.18,36.48A46.22,46.22,0,0,1,76,32c.48-.05,1-.19,1.42-.28h10c2.72.4,5.45.7,8.14,1.21,8.43,1.62,16.07,4.82,22.1,11.21s8.63,13.91,8.73,22.52c0,1.12-.44,1.44-1.49,1.43-5.37,0-10.73,0-16.09,0-.93,0-1.55-.22-1.53-1.29.1-9-6.4-14.65-14.07-16.62a40.32,40.32,0,0,0-22.83.42,15.75,15.75,0,0,0-7.35,5,9.44,9.44,0,0,0,2.95,14.76,36,36,0,0,0,11.54,3.36c9.71,1.49,19.44,2.87,29.07,4.77a29.75,29.75,0,0,1,16.8,9.19,22.13,22.13,0,0,1,5,9.42C128.66,98.05,128.44,98.47,127.39,98.47Z"/></g></g></svg>